<?xml version="1.0" encoding="utf-8"?>
<!-- Generator: Adobe Illustrator 25.3.1, SVG Export Plug-In . SVG Version: 6.00 Build 0)  -->
<svg version="1.1" id="Layer_1" xmlns="http://www.w3.org/2000/svg" xmlns:xlink="http://www.w3.org/1999/xlink" x="0px" y="0px"
	 viewBox="0 0 146 38" style="enable-background:new 0 0 146 38;" xml:space="preserve">
<style type="text/css">
	.st0{fill:#FFFFFF;}
	.st1{fill:#CCFF00;}
</style>
<g>
	<g>
		<path class="st0" d="M38.3,26.5h-6.4V11.9c0-1.5-0.6-5.2-5.6-4.7c-2.2,0.2-4,2.1-4,4.4v14.9h-6.4V11.9c0-1.4-0.4-4.8-4.7-4.8
			c-2.9,0-4.8,1.9-4.8,4.8v14.6H0V12.1C0,5.7,4.4,0.9,11.3,0.9c3.4,0,6.2,1.4,8,3.5c1.9-2.2,4.7-3.5,8-3.5c7,0,11.1,4.6,11.1,11.2
			v14.4H38.3z"/>
		<path class="st0" d="M109.7,0.9c-3.6,0-6.7,1.3-9.2,3.9s-3.8,5.7-3.8,9.3s1.3,6.7,3.7,9.3c2.5,2.6,5.6,3.9,9.2,3.9
			s6.7-1.3,9.2-3.9s3.7-5.7,3.7-9.3s-1.3-6.7-3.8-9.3l0,0C116.3,2.2,113.2,0.9,109.7,0.9z M114.4,19.2L114.4,19.2
			c-1.4,1.4-2.9,2-4.7,2c-1.9,0-3.5-0.7-4.8-2c-1.3-1.4-1.9-3-1.9-5s0.7-3.6,2-5.1c1.3-1.4,2.9-2.1,4.7-2.1c1.8,0,3.3,0.7,4.7,2.1
			c1.4,1.4,2,3.1,2,5C116.4,16.2,115.7,17.8,114.4,19.2z"/>
		<path class="st0" d="M60.6,2.8c-2-1.2-4.2-1.9-6.7-1.9c-3.6,0-6.6,1.3-9.1,3.8c0,0,0,0-0.1,0.1C44,5.5,43.4,6.3,42.9,7
			c-1.3,2.1-2,4.5-2,7.1c0,3.6,1.3,6.7,3.7,9.3c0.2,0.2,0.4,0.4,0.5,0.5c1.3,1.2,2.8,2.1,4.5,2.7l0,0c1.3,0.4,2.7,0.7,4.2,0.7
			c2.5,0,4.6-0.6,6.7-2.1v1.4h0.8h5.5l0,0V14.2v-0.5l0,0c-0.1-3.4-1.4-6.4-3.7-8.8c-0.6-0.6-1.1-1.1-1.8-1.5
			C61.1,3.1,60.8,3,60.6,2.8z M58.6,19.2L58.6,19.2c-1.3,1.4-2.9,2-4.7,2c-0.7,0-1.3-0.1-1.8-0.2H52c-1.1-0.3-2-0.9-2.8-1.7
			c-1.3-1.4-1.9-3-1.9-5s0.7-3.6,2-5.1c1.3-1.4,2.9-2.1,4.7-2.1c0.1,0,0.1,0,0.2,0c1.7,0.1,3.2,0.7,4.5,2.1c1.4,1.4,2,3.1,2,5
			C60.6,16.2,59.9,17.8,58.6,19.2z"/>
		<path class="st0" d="M81.7,0.9c-3.6,0-6.7,1.3-9.2,3.9s-3.8,5.7-3.8,9.3c0,1.5,0.2,3,0.7,4.3c0.1,0.4,0.3,0.7,0.4,1
			c0.2,0.4,0.3,0.7,0.5,1c0.6,1,1.3,2,2.1,2.9c0,0,0,0,0.1,0.1c0.2,0.2,0.3,0.3,0.5,0.5l0.1,0.1c0.2,0.2,0.5,0.4,0.7,0.6l0,0
			c2.2,1.7,4.9,2.6,7.8,2.6c2.5,0,4.7-0.6,6.7-1.9c0.1-0.1,0.3-0.2,0.4-0.2c0,0.5-0.1,1-0.2,1.4c-0.6,2-2.2,3.8-4.3,4.5l0,0
			c-0.8,0.3-1.7,0.4-2.5,0.4h-0.1h-0.1c-1.2,0-2.2-0.3-3.1-0.8h-0.1c0,0,0,0-0.1,0h-0.1c-1.1-0.6-2-1.5-2.7-2.6l-0.1-0.2h-6l0.2,0.6
			c0.6,1.8,1.6,3.4,3,4.8c2.5,2.6,5.6,3.9,9.2,3.9s6.7-1.3,9.2-3.9c1.4-1.4,2.4-3,3-4.8l0.1-0.2c0.1-0.4,0.2-0.9,0.3-1.6
			c0.1-0.6,0.1-1.2,0.2-2c0.1-1.9,0.1-5.2,0.1-5.3v-4v-0.4l0,0c0-1.4-0.1-2.7-0.4-3.9c-0.5-2.4-1.6-4.3-3.4-6.2
			c-0.8-0.8-1.6-1.5-2.5-2C86.5,1.6,84.2,0.9,81.7,0.9z M88.4,14.4v0.2c0,0.3,0,0.6-0.1,0.9c-0.1,0.4-0.2,0.8-0.3,1.2
			c-0.1,0.2-0.2,0.4-0.3,0.6c-0.1,0.2-0.2,0.4-0.3,0.6c-0.3,0.5-0.6,0.9-1,1.3c0,0-0.1,0-0.1,0.1c-1.3,1.3-2.8,2-4.7,2
			c-1.9,0-3.5-0.6-4.7-1.9c0,0,0,0-0.1-0.1c-0.4-0.4-0.7-0.8-1-1.3c-0.1-0.2-0.2-0.4-0.3-0.6c-0.1-0.2-0.2-0.4-0.2-0.6
			c-0.1-0.4-0.2-0.8-0.3-1.2c0-0.3-0.1-0.6-0.1-0.9v-0.1c0-0.1,0-0.1,0-0.2c0-0.1,0-0.2,0-0.3V14c0.1-1.8,0.7-3.3,2-4.6
			c1.3-1.4,2.9-2.1,4.7-2.1c1.8,0,3.3,0.7,4.7,2.1c1.3,1.3,1.9,2.8,2,4.6v0.1v0.1v0.2H88.4z"/>
		<polygon class="st0" points="123.8,27.1 145.4,7.1 145.4,1.5 138.5,1.5 123.8,1.5 123.8,7.1 135.6,7.1 136.3,7.1 123.8,18.6 		"/>
		<circle class="st1" cx="141.5" cy="22.8" r="4.5"/>
	</g>
</g>
</svg>
